<svg width="280" height="280" viewBox="0 0 16 16" xmlns="http://www.w3.org/2000/svg"><rect x="0" y="0" width="16" height="16" rx="8" fill="none"/><svg xmlns="http://www.w3.org/2000/svg" viewBox="0 0 16 16" fill="teal" x="0" y="0" width="16" height="16"><path fill="teal" d="M9 11H6c0-3 1.6-4 2.7-4.6c.4-.2.7-.4.9-.6c.5-.5.3-1.2.2-1.4c-.3-.7-1-1.4-2.3-1.4C5.4 3 5 4.9 5 5.3l-3-.4C2.2 3.2 3.7 0 7.5 0c2.3 0 4.3 1.3 5.1 3.2c.7 1.7.4 3.5-.8 4.7c-.5.5-1.1.8-1.6 1.1c-.9.5-1.2 1-1.2 2zm.5 3a2 2 0 1 1-3.999.001A2 2 0 0 1 9.5 14z"/></svg></svg>