<svg width="256" height="256" viewBox="0 0 24 24" xmlns="http://www.w3.org/2000/svg"><rect x="0" y="0" width="24" height="24" rx="8" fill="none"/><svg xmlns="http://www.w3.org/2000/svg" viewBox="0 0 24 24" fill="#000000" x="0" y="0" width="24" height="24"><path fill="lime" d="m2 5l7-3l6 3l6.303-2.701a.5.5 0 0 1 .697.46V19l-7 3l-6-3l-6.303 2.701a.5.5 0 0 1-.697-.46V5Zm4 6v2h2v-2H6Zm4 0v2h2v-2h-2Zm6-.06l-1.237-1.238l-1.061 1.06L14.939 12l-1.237 1.237l1.06 1.061L16 13.061l1.237 1.237l1.061-1.06L17.061 12l1.237-1.237l-1.06-1.061L16 10.939Z"/></svg></svg>